<?xml version="1.0" encoding="UTF-8"?>
<svg width="250px" height="89px" viewBox="0 0 250 89" version="1.1" xmlns="http://www.w3.org/2000/svg" xmlns:xlink="http://www.w3.org/1999/xlink">
    <!-- Generator: Sketch 52.5 (67469) - http://www.bohemiancoding.com/sketch -->
    <title>You_Can_Logo_Color</title>
    <desc>Created with Sketch.</desc>
    <g id="Logo" stroke="none" stroke-width="1" fill="none" fill-rule="evenodd">
        <g id="You-Can---Logo" transform="translate(-201.000000, -529.000000)">
            <g id="01.-Color-logo" transform="translate(0.000000, 429.000000)">
                <g id="You_Can_Logo_Color" transform="translate(201.000000, 100.000000)">
                    <g id="Text" transform="translate(165.625000, 13.350000)" fill="#141414">
                        <path d="M22.1428571,0.4806 C22.7976223,0.89593541 23.2142848,1.47739626 23.3928571,2.225 C23.5714295,2.98447046 23.452383,3.69053007 23.0357143,4.3432 L14.6785714,17.6932 L14.6785714,23.8876 C14.6785714,24.6708039 14.4047646,25.3353306 13.8571429,25.8812 C13.2976162,26.4270694 12.6309562,26.7 11.8571429,26.7 C11.0833295,26.7 10.4226218,26.4270694 9.875,25.8812 C9.32737821,25.3353306 9.05357143,24.6708039 9.05357143,23.8876 L9.05357143,17.6932 L0.678571429,4.3432 C0.2738075,3.69053007 0.154761071,2.98447046 0.321428571,2.225 C0.500000893,1.47739626 0.916663393,0.89593541 1.57142857,0.4806 C2.23809857,0.077131316 2.94642482,-0.041534164 3.69642857,0.1246 C4.45833714,0.30260089 5.04166464,0.71793007 5.44642857,1.3706 L11.8571429,11.5878 L18.2678571,1.3706 C18.6726211,0.71793007 19.2559486,0.30260089 20.0178571,0.1246 C20.7797657,-0.041534164 21.488092,0.077131316 22.1428571,0.4806 Z M48.8214286,13.3856 C48.8214286,11.261456 48.0654837,9.4458742 46.5535714,7.9388 C45.0297543,6.41985907 43.2023916,5.6604 41.0714286,5.6604 C38.9404655,5.6604 37.1190552,6.41985907 35.6071429,7.9388 C34.0952305,9.4458742 33.3392857,11.261456 33.3392857,13.3856 C33.3392857,15.509744 34.0952305,17.3253258 35.6071429,18.8324 C37.1190552,20.3394742 38.9404655,21.093 41.0714286,21.093 C43.2023916,21.093 45.0297543,20.3394742 46.5535714,18.8324 C48.0654837,17.3253258 48.8214286,15.509744 48.8214286,13.3856 Z M27.7142857,13.3856 C27.7142857,9.70691494 29.0178441,6.56821299 31.625,3.9694 C34.2440607,1.35872028 37.3928387,0.0534 41.0714286,0.0534 C44.7619232,0.0534 47.9107012,1.35872028 50.5178571,3.9694 C53.1369179,6.56821299 54.4464286,9.70691494 54.4464286,13.3856 C54.4464286,17.0524183 53.1369179,20.1911203 50.5178571,22.8018 C47.9107012,25.400613 44.7619232,26.7 41.0714286,26.7 C37.3928387,26.7 34.2440607,25.400613 31.625,22.8018 C29.0178441,20.1911203 27.7142857,17.0524183 27.7142857,13.3856 Z M72.4107143,26.7 C69.2083173,26.7 66.4762018,25.5667447 64.2142857,23.3002 C61.9404648,21.0455221 60.8035714,18.3221493 60.8035714,15.13 L60.8035714,2.8658 C60.8035714,2.09446281 61.0773782,1.4358694 61.625,0.89 C62.1726218,0.332263878 62.8392818,0.0534 63.625,0.0534 C64.3988134,0.0534 65.0595211,0.332263878 65.6071429,0.89 C66.1547646,1.4358694 66.4285714,2.09446281 66.4285714,2.8658 L66.4285714,15.13 C66.4285714,16.7794749 67.0118989,18.1856609 68.1785714,19.3486 C69.3452439,20.5115391 70.7559441,21.093 72.4107143,21.093 C74.0535796,21.093 75.4583275,20.5115391 76.625,19.3486 C77.8035773,18.1856609 78.3928571,16.7794749 78.3928571,15.13 L78.3928571,2.8658 C78.3928571,2.09446281 78.6666639,1.4358694 79.2142857,0.89 C79.7619075,0.332263878 80.4226152,0.0534 81.1964286,0.0534 C81.970242,0.0534 82.636902,0.332263878 83.1964286,0.89 C83.7440504,1.4358694 84.0178571,2.09446281 84.0178571,2.8658 L84.0178571,15.13 C84.0178571,18.3221493 82.8809637,21.0455221 80.6071429,23.3002 C78.3452268,25.5667447 75.6131112,26.7 72.4107143,26.7 Z M14.3214286,62.3 C10.6309339,62.3 7.48215589,61.000613 4.875,58.4018 C2.26784411,55.802987 0.964285714,52.6642851 0.964285714,48.9856 C0.964285714,45.2950482 2.26784411,42.1563463 4.875,39.5694 C7.48215589,36.9587203 10.6309339,35.6534 14.3214286,35.6534 C18.0119232,35.6534 21.1607013,36.9587203 23.7678571,39.5694 C24.3154789,40.1152694 24.5892857,40.7738628 24.5892857,41.5452 C24.5892857,42.3165372 24.3154789,42.9751306 23.7678571,43.521 C23.2202354,44.0787361 22.5595277,44.3576 21.7857143,44.3576 C20.9999961,44.3576 20.3333361,44.0787361 19.7857143,43.521 C18.273802,42.0139258 16.4523916,41.2604 14.3214286,41.2604 C12.1904655,41.2604 10.3690552,42.0139258 8.85714286,43.521 C7.34523054,45.0280742 6.58928571,46.8495893 6.58928571,48.9856 C6.58928571,51.109744 7.34523054,52.9253258 8.85714286,54.4324 C10.3690552,55.9394742 12.1904655,56.693 14.3214286,56.693 C16.4523916,56.693 18.273802,55.9394742 19.7857143,54.4324 C20.3333361,53.8865306 20.9999961,53.6136 21.7857143,53.6136 C22.5595277,53.6136 23.2202354,53.8865306 23.7678571,54.4324 C24.3154789,54.9782694 24.5892857,55.6368628 24.5892857,56.4082 C24.5892857,57.1914039 24.3154789,57.8559306 23.7678571,58.4018 C21.1607013,61.000613 18.0119232,62.3 14.3214286,62.3 Z M41.7857143,44.7314 L38.4285714,51.4242 L45.1428571,51.4242 L41.7857143,44.7314 Z M29.9821429,61.9974 C29.2797584,61.6532649 28.809525,61.113337 28.5714286,60.3776 C28.3214273,59.641863 28.3690459,58.9298701 28.7142857,58.2416 L39.2678571,37.202 C39.5059536,36.727331 39.8511882,36.3476014 40.3035714,36.0628 C40.7559546,35.7898653 41.2499973,35.6534 41.7857143,35.6534 C42.3214312,35.6534 42.8154739,35.7898653 43.2678571,36.0628 C43.7202404,36.3476014 44.065475,36.727331 44.3035714,37.202 L54.8392857,58.2416 C55.1964304,58.9298701 55.2500012,59.641863 55,60.3776 C54.7499987,61.113337 54.2797654,61.6532649 53.5892857,61.9974 C53.1964266,62.1991343 52.7797641,62.3 52.3392857,62.3 C51.8154736,62.3 51.3273832,62.1635347 50.875,61.8906 C50.410712,61.6057986 50.059525,61.2201358 49.8214286,60.7336 L47.9464286,57.0312 L35.6071429,57.0312 L33.75,60.7336 C33.4047602,61.4337368 32.8630989,61.9024655 32.125,62.1398 C31.3869011,62.3890012 30.6726225,62.3415351 29.9821429,61.9974 Z M62.6607143,35.8314 C63.2202409,35.6296657 63.7857114,35.6059326 64.3571429,35.7602 C64.9285743,35.9144674 65.40476,36.2170644 65.7857143,36.668 L78.3928571,51.7446 L78.3928571,38.4658 C78.3928571,37.6944628 78.6666639,37.0358694 79.2142857,36.49 C79.7619075,35.9322639 80.4226152,35.6534 81.1964286,35.6534 C81.970242,35.6534 82.636902,35.9322639 83.1964286,36.49 C83.7440504,37.0358694 84.0178571,37.6944628 84.0178571,38.4658 L84.0178571,59.4876 C84.0178571,60.0809363 83.8452398,60.6208642 83.5,61.1074 C83.166665,61.5939358 82.7202409,61.9380657 82.1607143,62.1398 C81.8511889,62.2466005 81.5297636,62.3 81.1964286,62.3 C80.3154718,62.3 79.5952409,61.9618034 79.0357143,61.2854 L66.4285714,46.2088 L66.4285714,59.4876 C66.4285714,60.2708039 66.1547646,60.9353306 65.6071429,61.4812 C65.0595211,62.0270694 64.3988134,62.3 63.625,62.3 C62.8392818,62.3 62.1726218,62.0270694 61.625,61.4812 C61.0773782,60.9353306 60.8035714,60.2708039 60.8035714,59.4876 L60.8035714,38.4658 C60.8035714,37.8724637 60.9761887,37.3325358 61.3214286,36.846 C61.6547636,36.371331 62.1011877,36.0331343 62.6607143,35.8314 Z" id="you-Ñan"></path>
                    </g>
                    <g id="YC">
                        <g id="C" transform="translate(61.160714, 0.000000)">
                            <g id="Circle" fill="#FFD401" fill-rule="nonzero">
                                <ellipse id="Oval" cx="44.6428571" cy="44.5" rx="44.6428571" ry="44.5"></ellipse>
                            </g>
                            <g transform="translate(13.839286, 16.020000)" fill="#141414">
                                <path d="M49.5464147,7.9950727 C48.4815501,7.99889501 47.4591962,7.57771389 46.7062184,6.82499146 C45.9532405,6.07226904 45.5319165,5.05026195 45.5357401,3.98575856 C45.5363951,3.72094148 45.5652046,3.45694402 45.6216831,3.19821471 C45.6883771,2.94650751 45.7795283,2.70192149 45.893836,2.46794677 C45.9968232,2.22800503 46.1214791,1.99794918 46.2662558,1.78063578 C47.1472133,0.435843577 48.7574272,-0.238629848 50.3342258,0.0766772634 C50.5894017,0.128516533 50.838876,0.205251796 51.0790653,0.305780929 C51.3190885,0.408733173 51.5492224,0.533346756 51.7666096,0.678074385 C51.9858234,0.82728577 52.1918813,0.99495047 52.3825346,1.17923865 C52.5669905,1.36973384 52.7347197,1.57573125 52.8838689,1.79495475 C53.0286457,2.01226816 53.1533015,2.24232401 53.2562887,2.48226575 C53.3568519,2.72237366 53.4336132,2.97176326 53.4854701,3.22685266 C53.5420559,3.48556445 53.5708667,3.74957341 53.5714131,4.01439651 C53.5743714,5.08675116 53.152008,6.11655647 52.3968584,6.87819233 C52.2083315,7.06486099 52.0020473,7.23270979 51.7809334,7.3793566 C51.5635463,7.52408423 51.3334123,7.64869781 51.0933892,7.75165006 C50.8531998,7.85217919 50.6037256,7.92891445 50.3485496,7.98075372 C50.0824512,8.01416472 49.8135367,8.01896513 49.5464147,7.9950727 Z" id="Path"></path>
                                <path d="M49.5464147,57.8350727 C48.4815501,57.838895 47.4591962,57.4177139 46.7062184,56.6649915 C45.9532405,55.912269 45.5319165,54.890262 45.5357401,53.8257586 C45.5363951,53.5609415 45.5652046,53.296944 45.6216831,53.0382147 C45.6883771,52.7865075 45.7795283,52.5419215 45.893836,52.3079468 C45.9968232,52.068005 46.1214791,51.8379492 46.2662558,51.6206358 C47.1472133,50.2758436 48.7574272,49.6013702 50.3342258,49.9166773 C50.5894017,49.9685165 50.838876,50.0452518 51.0790653,50.1457809 C51.3190885,50.2487332 51.5492224,50.3733468 51.7666096,50.5180744 C51.9858234,50.6672858 52.1918813,50.8349505 52.3825346,51.0192387 C52.5669905,51.2097338 52.7347197,51.4157312 52.8838689,51.6349548 C53.0286457,51.8522682 53.1533015,52.082324 53.2562887,52.3222658 C53.3568519,52.5623737 53.4336132,52.8117633 53.4854701,53.0668527 C53.5420559,53.3255645 53.5708667,53.5895734 53.5714131,53.8543965 C53.5743714,54.9267512 53.152008,55.9565565 52.3968584,56.7181923 C52.2083315,56.904861 52.0020473,57.0727098 51.7809334,57.2193566 C51.5635463,57.3640842 51.3334123,57.4886978 51.0933892,57.5916501 C50.8531998,57.6921792 50.6037256,57.7689145 50.3485496,57.8207537 C50.0824512,57.8541647 49.8135367,57.8589651 49.5464147,57.8350727 Z" id="Path"></path>
                                <path d="M36.1607143,0 L37.5,0 C39.4724455,1.20390968e-16 41.0714286,1.59386629 41.0714286,3.56 L41.0714286,4.45 C41.0714286,6.41613371 39.4724455,8.01 37.5,8.01 L29.0178571,8.01 C17.4297396,8.01 8.03571429,17.3739645 8.03571429,28.925 C8.03571429,40.4760355 17.4297396,49.84 29.0178571,49.84 L37.5,49.84 C39.4724455,49.84 41.0714286,51.4338663 41.0714286,53.4 L41.0714286,54.29 C41.0714286,56.2561337 39.4724455,57.85 37.5,57.85 L29.0178571,57.85 C12.9917372,57.85 1.96263365e-15,44.8998364 0,28.925 C-1.96263365e-15,12.9501636 12.9917372,2.93452984e-15 29.0178571,0 L36.1607143,0 Z" id="Combined-Shape"></path>
                            </g>
                        </g>
                        <g id="Y" transform="translate(0.000000, 16.020000)" fill="#141414">
                            <path d="M28.6361261,57.8498961 C27.5533663,57.8576234 26.5126934,57.4340723 25.7470358,56.6740439 C25.5544851,56.4891246 25.3847638,56.2821369 25.241445,56.0574385 C25.095439,55.8398113 24.9697248,55.6094231 24.8658632,55.3691348 C24.7647057,55.1285869 24.6873005,54.8788626 24.634736,54.6234725 C24.5265166,54.1031722 24.5265166,53.5664101 24.634736,53.0461098 C24.6872121,52.7906973 24.7646198,52.5409646 24.8658632,52.3004475 C24.969862,52.0556606 25.0955494,51.820523 25.241445,51.5978041 C25.3872887,51.3793048 25.5568326,51.1773422 25.7470358,50.9955384 C26.8907367,49.8798676 28.5888799,49.5371072 30.0806712,50.1208191 C30.3225601,50.2242728 30.5546165,50.3490495 30.7740529,50.4936503 C31.0002504,50.6361381 31.2087403,50.8045963 31.3952073,50.9955384 C31.5849929,51.1777277 31.7544971,51.3796431 31.9007981,51.5978041 C32.0466283,51.8205612 32.1723125,52.0556929 32.2763799,52.3004475 C32.3777969,52.5409022 32.45521,52.790652 32.5075071,53.0461098 C32.6165453,53.5663268 32.6165453,54.1032555 32.5075071,54.6234725 C32.4551202,54.8789076 32.3777098,55.1286488 32.2763799,55.3691348 C32.172163,55.6092522 32.0464657,55.8396092 31.9007981,56.0574385 C31.7541124,56.2797118 31.5846824,56.4863442 31.3952073,56.6740439 C31.2086498,56.864888 31.0001721,57.0333364 30.7740529,57.1759321 C30.5548201,57.3208687 30.3227323,57.4456623 30.0806712,57.5487632 C29.8384744,57.6495247 29.5868733,57.7263734 29.3295078,57.7781978 C29.1011322,57.8234671 28.8689975,57.8474707 28.6361261,57.8498961 Z" id="Path"></path>
                            <path d="M28.5787023,45.39 C27.2157714,45.3890991 25.9436041,44.7045224 25.1891246,43.5660056 L0.778346192,6.48784647 C-0.103193276,5.27122611 -0.247084581,3.66718357 0.403773311,2.31225826 C1.0546312,0.957332948 2.39498788,0.070630222 3.89294357,0.00402430912 C5.39089927,-0.0625816037 6.80421915,0.701680157 7.57204913,1.99352416 L28.5787023,33.8769471 L49.570808,1.99352416 C50.338638,0.701680157 51.7519579,-0.0625816037 53.2499136,0.00402430912 C54.7478693,0.070630222 56.0882259,0.957332948 56.7390838,2.31225826 C57.3899417,3.66718357 57.2460504,5.27122611 56.364511,6.48784647 L31.96828,43.5368216 C31.2205132,44.6864588 29.947181,45.3826256 28.5787023,45.39 Z" id="Path"></path>
                        </g>
                    </g>
                </g>
            </g>
        </g>
    </g>
</svg>